# xmcd
#
# Track frame offsets: 
#        150
#        20703
#        33763
#        49065
#        63247
#        80128
#        96429
#        110927
#        123110
#        142672
#
# Disc length: 2166 seconds
#
# Revision: 1
# Processed by: cddbd v1.5.2PL0 Copyright (c) Steve Scherf et al.
# Submitted via: ExactAudioCopy v0.95b4
#
DISCID=8408740a
DTITLE=Keith Green - The Early Years
DYEAR=2006
DGENRE=Christian Rock
TTITLE0=Asleep In The Light
TTITLE1=Soften Your Heart
TTITLE2=To Obley Is Better Than Sacrifice
TTITLE3=How Can They Live Without Jesus
TTITLE4=Lies
TTITLE5=You!
TTITLE6=There Is A Redeemer
TTITLE7=You Are The One!
TTITLE8=Oh Lord, You´re Beautiful
TTITLE9=I Want To Be More Like Jesus
EXTD=www.gerth.de, At.-Nr. 104316
EXTT0=
EXTT1=
EXTT2=
EXTT3=
EXTT4=
EXTT5=
EXTT6=
EXTT7=
EXTT8=
EXTT9=
PLAYORDER=
